<svg xmlns="http://www.w3.org/2000/svg" viewBox="0 0 16 16" width="256" height="256" shape-rendering="crispEdges" role="img" aria-label="Holly"><title>Holly — idle-down</title><rect width="16" height="16" fill="transparent"/><rect x="12" y="2" width="1" height="1" fill="#4f9450"/><rect x="13" y="2" width="1" height="1" fill="#4f9450"/><rect x="12" y="3" width="1" height="1" fill="#337038"/><rect x="13" y="3" width="1" height="1" fill="#1f4a24"/><rect x="9" y="4" width="1" height="1" fill="#0f2413"/><rect x="10" y="4" width="1" height="1" fill="#4f9450"/><rect x="11" y="4" width="1" height="1" fill="#4f9450"/><rect x="12" y="4" width="1" height="1" fill="#1f4a24"/><rect x="4" y="5" width="1" height="1" fill="#4f9450"/><rect x="5" y="5" width="1" height="1" fill="#4f9450"/><rect x="6" y="5" width="1" height="1" fill="#e86a6a"/><rect x="7" y="5" width="1" height="1" fill="#e86a6a"/><rect x="8" y="5" width="1" height="1" fill="#4a1010"/><rect x="9" y="5" width="1" height="1" fill="#8a1f1f"/><rect x="10" y="5" width="1" height="1" fill="#4a1010"/><rect x="11" y="5" width="1" height="1" fill="#c53030"/><rect x="12" y="5" width="1" height="1" fill="#c53030"/><rect x="13" y="5" width="1" height="1" fill="#e86a6a"/><rect x="4" y="6" width="1" height="1" fill="#1f4a24"/><rect x="5" y="6" width="1" height="1" fill="#1f4a24"/><rect x="6" y="6" width="1" height="1" fill="#8a1f1f"/><rect x="7" y="6" width="1" height="1" fill="#8a1f1f"/><rect x="8" y="6" width="1" height="1" fill="#4a1010"/><rect x="9" y="6" width="1" height="1" fill="#8a1f1f"/><rect x="10" y="6" width="1" height="1" fill="#4a1010"/><rect x="11" y="6" width="1" height="1" fill="#4a1010"/><rect x="12" y="6" width="1" height="1" fill="#c53030"/><rect x="13" y="6" width="1" height="1" fill="#8a1f1f"/><rect x="1" y="7" width="1" height="1" fill="#337038"/><rect x="2" y="7" width="1" height="1" fill="#337038"/><rect x="3" y="7" width="1" height="1" fill="#1f4a24"/><rect x="9" y="7" width="1" height="1" fill="#4a1010"/><rect x="10" y="7" width="1" height="1" fill="#8a1f1f"/><rect x="11" y="7" width="1" height="1" fill="#8a1f1f"/><rect x="12" y="7" width="1" height="1" fill="#4a1010"/><rect x="13" y="7" width="1" height="1" fill="#8a1f1f"/><rect x="7" y="8" width="1" height="1" fill="#e86a6a"/><rect x="8" y="8" width="1" height="1" fill="#e86a6a"/><rect x="9" y="8" width="1" height="1" fill="#c53030"/><rect x="10" y="8" width="1" height="1" fill="#4a1010"/><rect x="11" y="8" width="1" height="1" fill="#4a1010"/><rect x="7" y="9" width="1" height="1" fill="#c53030"/><rect x="8" y="9" width="1" height="1" fill="#c53030"/><rect x="9" y="9" width="1" height="1" fill="#c53030"/><rect x="10" y="9" width="1" height="1" fill="#8a1f1f"/><rect x="11" y="9" width="1" height="1" fill="#8a1f1f"/><rect x="6" y="10" width="1" height="1" fill="#e86a6a"/><rect x="7" y="10" width="1" height="1" fill="#c53030"/><rect x="8" y="10" width="1" height="1" fill="#c53030"/><rect x="9" y="10" width="1" height="1" fill="#8a1f1f"/><rect x="3" y="11" width="1" height="1" fill="#4f9450"/><rect x="4" y="11" width="1" height="1" fill="#4f9450"/><rect x="5" y="11" width="1" height="1" fill="#4f9450"/><rect x="6" y="11" width="1" height="1" fill="#c53030"/><rect x="7" y="11" width="1" height="1" fill="#c53030"/><rect x="8" y="11" width="1" height="1" fill="#c53030"/><rect x="9" y="11" width="1" height="1" fill="#8a1f1f"/><rect x="3" y="12" width="1" height="1" fill="#1f4a24"/><rect x="4" y="12" width="1" height="1" fill="#1f4a24"/><rect x="5" y="12" width="1" height="1" fill="#1f4a24"/><rect x="6" y="12" width="1" height="1" fill="#8a1f1f"/><rect x="7" y="12" width="1" height="1" fill="#c53030"/><rect x="8" y="12" width="1" height="1" fill="#c53030"/><rect x="9" y="12" width="1" height="1" fill="#8a1f1f"/><rect x="7" y="13" width="1" height="1" fill="#8a1f1f"/><rect x="8" y="13" width="1" height="1" fill="#8a1f1f"/></svg>
