<svg xmlns="http://www.w3.org/2000/svg" viewBox="0 0 16 16" width="256" height="256" shape-rendering="crispEdges" role="img" aria-label="Tuna"><title>Tuna — idle-down</title><rect width="16" height="16" fill="transparent"/><rect x="9" y="1" width="1" height="1" fill="#67c6dc"/><rect x="10" y="1" width="1" height="1" fill="#1a5c78"/><rect x="8" y="2" width="1" height="1" fill="#67c6dc"/><rect x="9" y="2" width="1" height="1" fill="#1a5c78"/><rect x="8" y="3" width="1" height="1" fill="#2f8fae"/><rect x="9" y="3" width="1" height="1" fill="#1a5c78"/><rect x="6" y="4" width="1" height="1" fill="#67c6dc"/><rect x="7" y="4" width="1" height="1" fill="#67c6dc"/><rect x="8" y="4" width="1" height="1" fill="#2f8fae"/><rect x="9" y="4" width="1" height="1" fill="#2f8fae"/><rect x="10" y="4" width="1" height="1" fill="#67c6dc"/><rect x="11" y="4" width="1" height="1" fill="#67c6dc"/><rect x="15" y="4" width="1" height="1" fill="#67c6dc"/><rect x="5" y="5" width="1" height="1" fill="#67c6dc"/><rect x="6" y="5" width="1" height="1" fill="#0d2f3d"/><rect x="7" y="5" width="1" height="1" fill="#0d2f3d"/><rect x="8" y="5" width="1" height="1" fill="#0d2f3d"/><rect x="9" y="5" width="1" height="1" fill="#0d2f3d"/><rect x="10" y="5" width="1" height="1" fill="#0d2f3d"/><rect x="11" y="5" width="1" height="1" fill="#2f8fae"/><rect x="12" y="5" width="1" height="1" fill="#67c6dc"/><rect x="14" y="5" width="1" height="1" fill="#67c6dc"/><rect x="15" y="5" width="1" height="1" fill="#1a5c78"/><rect x="4" y="6" width="1" height="1" fill="#67c6dc"/><rect x="5" y="6" width="1" height="1" fill="#0d2f3d"/><rect x="6" y="6" width="1" height="1" fill="#67c6dc"/><rect x="7" y="6" width="1" height="1" fill="#67c6dc"/><rect x="8" y="6" width="1" height="1" fill="#67c6dc"/><rect x="9" y="6" width="1" height="1" fill="#67c6dc"/><rect x="10" y="6" width="1" height="1" fill="#1a5c78"/><rect x="11" y="6" width="1" height="1" fill="#0d2f3d"/><rect x="12" y="6" width="1" height="1" fill="#1a5c78"/><rect x="14" y="6" width="1" height="1" fill="#2f8fae"/><rect x="15" y="6" width="1" height="1" fill="#1a5c78"/><rect x="3" y="7" width="1" height="1" fill="#67c6dc"/><rect x="4" y="7" width="1" height="1" fill="#0d2f3d"/><rect x="5" y="7" width="1" height="1" fill="#67c6dc"/><rect x="6" y="7" width="1" height="1" fill="#2f8fae"/><rect x="7" y="7" width="1" height="1" fill="#2f8fae"/><rect x="8" y="7" width="1" height="1" fill="#2f8fae"/><rect x="9" y="7" width="1" height="1" fill="#1a5c78"/><rect x="10" y="7" width="1" height="1" fill="#0d2f3d"/><rect x="11" y="7" width="1" height="1" fill="#0d2f3d"/><rect x="12" y="7" width="1" height="1" fill="#2f8fae"/><rect x="13" y="7" width="1" height="1" fill="#67c6dc"/><rect x="14" y="7" width="1" height="1" fill="#1a5c78"/><rect x="2" y="8" width="1" height="1" fill="#67c6dc"/><rect x="3" y="8" width="1" height="1" fill="#0d2f3d"/><rect x="4" y="8" width="1" height="1" fill="#1a5c78"/><rect x="5" y="8" width="1" height="1" fill="#2f8fae"/><rect x="6" y="8" width="1" height="1" fill="#2f8fae"/><rect x="7" y="8" width="1" height="1" fill="#2f8fae"/><rect x="8" y="8" width="1" height="1" fill="#2f8fae"/><rect x="9" y="8" width="1" height="1" fill="#1a5c78"/><rect x="10" y="8" width="1" height="1" fill="#0d2f3d"/><rect x="11" y="8" width="1" height="1" fill="#1a5c78"/><rect x="12" y="8" width="1" height="1" fill="#0d2f3d"/><rect x="13" y="8" width="1" height="1" fill="#2f8fae"/><rect x="14" y="8" width="1" height="1" fill="#1a5c78"/><rect x="2" y="9" width="1" height="1" fill="#1a5c78"/><rect x="3" y="9" width="1" height="1" fill="#2f8fae"/><rect x="4" y="9" width="1" height="1" fill="#0d2f3d"/><rect x="5" y="9" width="1" height="1" fill="#1a5c78"/><rect x="6" y="9" width="1" height="1" fill="#2f8fae"/><rect x="7" y="9" width="1" height="1" fill="#2f8fae"/><rect x="8" y="9" width="1" height="1" fill="#2f8fae"/><rect x="9" y="9" width="1" height="1" fill="#2f8fae"/><rect x="10" y="9" width="1" height="1" fill="#67c6dc"/><rect x="11" y="9" width="1" height="1" fill="#1a5c78"/><rect x="12" y="9" width="1" height="1" fill="#0d2f3d"/><rect x="13" y="9" width="1" height="1" fill="#2f8fae"/><rect x="14" y="9" width="1" height="1" fill="#1a5c78"/><rect x="3" y="10" width="1" height="1" fill="#1a5c78"/><rect x="4" y="10" width="1" height="1" fill="#2f8fae"/><rect x="5" y="10" width="1" height="1" fill="#0d2f3d"/><rect x="6" y="10" width="1" height="1" fill="#1a5c78"/><rect x="7" y="10" width="1" height="1" fill="#2f8fae"/><rect x="8" y="10" width="1" height="1" fill="#2f8fae"/><rect x="9" y="10" width="1" height="1" fill="#2f8fae"/><rect x="10" y="10" width="1" height="1" fill="#2f8fae"/><rect x="11" y="10" width="1" height="1" fill="#1a5c78"/><rect x="12" y="10" width="1" height="1" fill="#0d2f3d"/><rect x="13" y="10" width="1" height="1" fill="#1a5c78"/><rect x="14" y="10" width="1" height="1" fill="#2f8fae"/><rect x="15" y="10" width="1" height="1" fill="#67c6dc"/><rect x="4" y="11" width="1" height="1" fill="#1a5c78"/><rect x="5" y="11" width="1" height="1" fill="#2f8fae"/><rect x="6" y="11" width="1" height="1" fill="#0d2f3d"/><rect x="7" y="11" width="1" height="1" fill="#1a5c78"/><rect x="8" y="11" width="1" height="1" fill="#1a5c78"/><rect x="9" y="11" width="1" height="1" fill="#1a5c78"/><rect x="10" y="11" width="1" height="1" fill="#1a5c78"/><rect x="11" y="11" width="1" height="1" fill="#0d2f3d"/><rect x="12" y="11" width="1" height="1" fill="#1a5c78"/><rect x="14" y="11" width="1" height="1" fill="#2f8fae"/><rect x="15" y="11" width="1" height="1" fill="#1a5c78"/><rect x="5" y="12" width="1" height="1" fill="#1a5c78"/><rect x="6" y="12" width="1" height="1" fill="#2f8fae"/><rect x="7" y="12" width="1" height="1" fill="#0d2f3d"/><rect x="8" y="12" width="1" height="1" fill="#0d2f3d"/><rect x="9" y="12" width="1" height="1" fill="#0d2f3d"/><rect x="10" y="12" width="1" height="1" fill="#0d2f3d"/><rect x="11" y="12" width="1" height="1" fill="#1a5c78"/><rect x="14" y="12" width="1" height="1" fill="#1a5c78"/><rect x="15" y="12" width="1" height="1" fill="#1a5c78"/><rect x="6" y="13" width="1" height="1" fill="#1a5c78"/><rect x="7" y="13" width="1" height="1" fill="#1a5c78"/><rect x="8" y="13" width="1" height="1" fill="#2f8fae"/><rect x="9" y="13" width="1" height="1" fill="#2f8fae"/><rect x="10" y="13" width="1" height="1" fill="#1a5c78"/><rect x="15" y="13" width="1" height="1" fill="#1a5c78"/><rect x="8" y="14" width="1" height="1" fill="#2f8fae"/><rect x="9" y="14" width="1" height="1" fill="#1a5c78"/><rect x="8" y="15" width="1" height="1" fill="#1a5c78"/><rect x="9" y="15" width="1" height="1" fill="#1a5c78"/><rect x="10" y="15" width="1" height="1" fill="#1a5c78"/></svg>
