<svg xmlns="http://www.w3.org/2000/svg" viewBox="0 0 16 16" width="256" height="256" shape-rendering="crispEdges" role="img" aria-label="Wheat"><title>Wheat — idle-down</title><rect width="16" height="16" fill="transparent"/><rect x="8" y="3" width="1" height="1" fill="#f4d67f"/><rect x="9" y="3" width="1" height="1" fill="#f4d67f"/><rect x="5" y="4" width="1" height="1" fill="#f4d67f"/><rect x="6" y="4" width="1" height="1" fill="#a8802a"/><rect x="8" y="4" width="1" height="1" fill="#dcb14a"/><rect x="9" y="4" width="1" height="1" fill="#dcb14a"/><rect x="10" y="4" width="1" height="1" fill="#dcb14a"/><rect x="11" y="4" width="1" height="1" fill="#f4d67f"/><rect x="12" y="4" width="1" height="1" fill="#f4d67f"/><rect x="4" y="5" width="1" height="1" fill="#f4d67f"/><rect x="5" y="5" width="1" height="1" fill="#a8802a"/><rect x="8" y="5" width="1" height="1" fill="#dcb14a"/><rect x="9" y="5" width="1" height="1" fill="#a8802a"/><rect x="11" y="5" width="1" height="1" fill="#dcb14a"/><rect x="12" y="5" width="1" height="1" fill="#dcb14a"/><rect x="13" y="5" width="1" height="1" fill="#a8802a"/><rect x="4" y="6" width="1" height="1" fill="#a8802a"/><rect x="5" y="6" width="1" height="1" fill="#dcb14a"/><rect x="6" y="6" width="1" height="1" fill="#f4d67f"/><rect x="8" y="6" width="1" height="1" fill="#dcb14a"/><rect x="9" y="6" width="1" height="1" fill="#a8802a"/><rect x="11" y="6" width="1" height="1" fill="#dcb14a"/><rect x="12" y="6" width="1" height="1" fill="#a8802a"/><rect x="5" y="7" width="1" height="1" fill="#dcb14a"/><rect x="6" y="7" width="1" height="1" fill="#a8802a"/><rect x="8" y="7" width="1" height="1" fill="#dcb14a"/><rect x="9" y="7" width="1" height="1" fill="#a8802a"/><rect x="11" y="7" width="1" height="1" fill="#dcb14a"/><rect x="12" y="7" width="1" height="1" fill="#a8802a"/><rect x="5" y="8" width="1" height="1" fill="#dcb14a"/><rect x="6" y="8" width="1" height="1" fill="#a8802a"/><rect x="8" y="8" width="1" height="1" fill="#dcb14a"/><rect x="9" y="8" width="1" height="1" fill="#a8802a"/><rect x="11" y="8" width="1" height="1" fill="#dcb14a"/><rect x="12" y="8" width="1" height="1" fill="#a8802a"/><rect x="5" y="9" width="1" height="1" fill="#dcb14a"/><rect x="6" y="9" width="1" height="1" fill="#a8802a"/><rect x="8" y="9" width="1" height="1" fill="#dcb14a"/><rect x="9" y="9" width="1" height="1" fill="#a8802a"/><rect x="11" y="9" width="1" height="1" fill="#dcb14a"/><rect x="12" y="9" width="1" height="1" fill="#a8802a"/><rect x="5" y="10" width="1" height="1" fill="#dcb14a"/><rect x="6" y="10" width="1" height="1" fill="#a8802a"/><rect x="8" y="10" width="1" height="1" fill="#dcb14a"/><rect x="9" y="10" width="1" height="1" fill="#a8802a"/><rect x="11" y="10" width="1" height="1" fill="#dcb14a"/><rect x="12" y="10" width="1" height="1" fill="#a8802a"/><rect x="5" y="11" width="1" height="1" fill="#dcb14a"/><rect x="6" y="11" width="1" height="1" fill="#a8802a"/><rect x="8" y="11" width="1" height="1" fill="#dcb14a"/><rect x="9" y="11" width="1" height="1" fill="#a8802a"/><rect x="11" y="11" width="1" height="1" fill="#dcb14a"/><rect x="12" y="11" width="1" height="1" fill="#a8802a"/><rect x="5" y="12" width="1" height="1" fill="#dcb14a"/><rect x="6" y="12" width="1" height="1" fill="#a8802a"/><rect x="8" y="12" width="1" height="1" fill="#dcb14a"/><rect x="9" y="12" width="1" height="1" fill="#a8802a"/><rect x="11" y="12" width="1" height="1" fill="#dcb14a"/><rect x="12" y="12" width="1" height="1" fill="#a8802a"/><rect x="5" y="13" width="1" height="1" fill="#dcb14a"/><rect x="6" y="13" width="1" height="1" fill="#a8802a"/><rect x="8" y="13" width="1" height="1" fill="#dcb14a"/><rect x="9" y="13" width="1" height="1" fill="#a8802a"/><rect x="11" y="13" width="1" height="1" fill="#dcb14a"/><rect x="12" y="13" width="1" height="1" fill="#a8802a"/><rect x="5" y="14" width="1" height="1" fill="#dcb14a"/><rect x="6" y="14" width="1" height="1" fill="#a8802a"/><rect x="8" y="14" width="1" height="1" fill="#dcb14a"/><rect x="9" y="14" width="1" height="1" fill="#a8802a"/><rect x="11" y="14" width="1" height="1" fill="#dcb14a"/><rect x="12" y="14" width="1" height="1" fill="#a8802a"/><rect x="5" y="15" width="1" height="1" fill="#a8802a"/><rect x="8" y="15" width="1" height="1" fill="#a8802a"/><rect x="11" y="15" width="1" height="1" fill="#a8802a"/></svg>
