<svg xmlns="http://www.w3.org/2000/svg" viewBox="0 0 16 16" width="256" height="256" shape-rendering="crispEdges" role="img" aria-label="Pancakes"><title>Pancakes — idle-down</title><rect width="16" height="16" fill="transparent"/><rect x="8" y="4" width="1" height="1" fill="#2b2118"/><rect x="9" y="5" width="1" height="1" fill="#2b2118"/><rect x="4" y="6" width="1" height="1" fill="#2b2118"/><rect x="5" y="6" width="1" height="1" fill="#2b2118"/><rect x="6" y="6" width="1" height="1" fill="#2b2118"/><rect x="7" y="6" width="1" height="1" fill="#2b2118"/><rect x="8" y="6" width="1" height="1" fill="#2b2118"/><rect x="9" y="6" width="1" height="1" fill="#2b2118"/><rect x="10" y="6" width="1" height="1" fill="#2b2118"/><rect x="11" y="6" width="1" height="1" fill="#2b2118"/><rect x="12" y="6" width="1" height="1" fill="#2b2118"/><rect x="4" y="8" width="1" height="1" fill="#2b2118"/><rect x="5" y="8" width="1" height="1" fill="#2b2118"/><rect x="6" y="8" width="1" height="1" fill="#2b2118"/><rect x="7" y="8" width="1" height="1" fill="#2b2118"/><rect x="8" y="8" width="1" height="1" fill="#2b2118"/><rect x="9" y="8" width="1" height="1" fill="#2b2118"/><rect x="10" y="8" width="1" height="1" fill="#2b2118"/><rect x="11" y="8" width="1" height="1" fill="#2b2118"/><rect x="12" y="8" width="1" height="1" fill="#2b2118"/><rect x="4" y="10" width="1" height="1" fill="#2b2118"/><rect x="5" y="10" width="1" height="1" fill="#2b2118"/><rect x="6" y="10" width="1" height="1" fill="#2b2118"/><rect x="7" y="10" width="1" height="1" fill="#2b2118"/><rect x="8" y="10" width="1" height="1" fill="#2b2118"/><rect x="9" y="10" width="1" height="1" fill="#2b2118"/><rect x="10" y="10" width="1" height="1" fill="#2b2118"/><rect x="11" y="10" width="1" height="1" fill="#2b2118"/><rect x="12" y="10" width="1" height="1" fill="#2b2118"/></svg>
