<svg xmlns="http://www.w3.org/2000/svg" viewBox="0 0 16 16" width="256" height="256" shape-rendering="crispEdges" role="img" aria-label="Scarecrow"><title>Scarecrow — idle-down</title><rect width="16" height="16" fill="transparent"/><rect x="8" y="2" width="1" height="1" fill="#f4d67f"/><rect x="9" y="2" width="1" height="1" fill="#f4d67f"/><rect x="7" y="3" width="1" height="1" fill="#f4d67f"/><rect x="8" y="3" width="1" height="1" fill="#6b4a15"/><rect x="9" y="3" width="1" height="1" fill="#dcb14a"/><rect x="10" y="3" width="1" height="1" fill="#f4d67f"/><rect x="6" y="4" width="1" height="1" fill="#f4d67f"/><rect x="7" y="4" width="1" height="1" fill="#6b4a15"/><rect x="8" y="4" width="1" height="1" fill="#a8802a"/><rect x="9" y="4" width="1" height="1" fill="#6b4a15"/><rect x="10" y="4" width="1" height="1" fill="#dcb14a"/><rect x="11" y="4" width="1" height="1" fill="#a8802a"/><rect x="6" y="5" width="1" height="1" fill="#a8802a"/><rect x="7" y="5" width="1" height="1" fill="#dcb14a"/><rect x="8" y="5" width="1" height="1" fill="#6b4a15"/><rect x="9" y="5" width="1" height="1" fill="#dcb14a"/><rect x="10" y="5" width="1" height="1" fill="#a8802a"/><rect x="7" y="6" width="1" height="1" fill="#dcb14a"/><rect x="8" y="6" width="1" height="1" fill="#dcb14a"/><rect x="9" y="6" width="1" height="1" fill="#a8802a"/><rect x="3" y="7" width="1" height="1" fill="#8f6236"/><rect x="4" y="7" width="1" height="1" fill="#8f6236"/><rect x="5" y="7" width="1" height="1" fill="#8f6236"/><rect x="6" y="7" width="1" height="1" fill="#8f6236"/><rect x="7" y="7" width="1" height="1" fill="#6d4622"/><rect x="8" y="7" width="1" height="1" fill="#6d4622"/><rect x="9" y="7" width="1" height="1" fill="#6d4622"/><rect x="10" y="7" width="1" height="1" fill="#8f6236"/><rect x="11" y="7" width="1" height="1" fill="#8f6236"/><rect x="12" y="7" width="1" height="1" fill="#8f6236"/><rect x="13" y="7" width="1" height="1" fill="#8f6236"/><rect x="14" y="7" width="1" height="1" fill="#4a2e15"/><rect x="3" y="8" width="1" height="1" fill="#4a2e15"/><rect x="4" y="8" width="1" height="1" fill="#4a2e15"/><rect x="5" y="8" width="1" height="1" fill="#4a2e15"/><rect x="6" y="8" width="1" height="1" fill="#4a2e15"/><rect x="7" y="8" width="1" height="1" fill="#4a2e15"/><rect x="8" y="8" width="1" height="1" fill="#6d4622"/><rect x="9" y="8" width="1" height="1" fill="#6d4622"/><rect x="10" y="8" width="1" height="1" fill="#4a2e15"/><rect x="11" y="8" width="1" height="1" fill="#4a2e15"/><rect x="12" y="8" width="1" height="1" fill="#4a2e15"/><rect x="13" y="8" width="1" height="1" fill="#4a2e15"/><rect x="8" y="9" width="1" height="1" fill="#6d4622"/><rect x="9" y="9" width="1" height="1" fill="#4a2e15"/><rect x="5" y="10" width="1" height="1" fill="#8f6236"/><rect x="6" y="10" width="1" height="1" fill="#4a2e15"/><rect x="8" y="10" width="1" height="1" fill="#6d4622"/><rect x="9" y="10" width="1" height="1" fill="#4a2e15"/><rect x="11" y="10" width="1" height="1" fill="#8f6236"/><rect x="12" y="10" width="1" height="1" fill="#4a2e15"/><rect x="5" y="11" width="1" height="1" fill="#4a2e15"/><rect x="8" y="11" width="1" height="1" fill="#6d4622"/><rect x="9" y="11" width="1" height="1" fill="#4a2e15"/><rect x="11" y="11" width="1" height="1" fill="#4a2e15"/><rect x="8" y="12" width="1" height="1" fill="#6d4622"/><rect x="9" y="12" width="1" height="1" fill="#4a2e15"/><rect x="8" y="13" width="1" height="1" fill="#6d4622"/><rect x="9" y="13" width="1" height="1" fill="#4a2e15"/><rect x="8" y="14" width="1" height="1" fill="#6d4622"/><rect x="9" y="14" width="1" height="1" fill="#4a2e15"/><rect x="8" y="15" width="1" height="1" fill="#4a2e15"/></svg>
