<svg xmlns="http://www.w3.org/2000/svg" viewBox="0 0 16 16" width="256" height="256" shape-rendering="crispEdges" role="img" aria-label="Coffee"><title>Coffee — idle-down</title><rect width="16" height="16" fill="transparent"/><rect x="7" y="1" width="1" height="1" fill="#ffffff"/><rect x="8" y="1" width="1" height="1" fill="#ffffff"/><rect x="7" y="2" width="1" height="1" fill="#bab6ab"/><rect x="8" y="2" width="1" height="1" fill="#bab6ab"/><rect x="6" y="3" width="1" height="1" fill="#bab6ab"/><rect x="1" y="6" width="1" height="1" fill="#ffffff"/><rect x="2" y="6" width="1" height="1" fill="#ffffff"/><rect x="3" y="6" width="1" height="1" fill="#7d7a72"/><rect x="4" y="6" width="1" height="1" fill="#7d7a72"/><rect x="5" y="6" width="1" height="1" fill="#7d7a72"/><rect x="6" y="6" width="1" height="1" fill="#7d7a72"/><rect x="7" y="6" width="1" height="1" fill="#7d7a72"/><rect x="8" y="6" width="1" height="1" fill="#7d7a72"/><rect x="9" y="6" width="1" height="1" fill="#7d7a72"/><rect x="10" y="6" width="1" height="1" fill="#ffffff"/><rect x="11" y="6" width="1" height="1" fill="#ffffff"/><rect x="1" y="7" width="1" height="1" fill="#6d4622"/><rect x="2" y="7" width="1" height="1" fill="#241608"/><rect x="3" y="7" width="1" height="1" fill="#8f6236"/><rect x="4" y="7" width="1" height="1" fill="#8f6236"/><rect x="5" y="7" width="1" height="1" fill="#8f6236"/><rect x="6" y="7" width="1" height="1" fill="#8f6236"/><rect x="7" y="7" width="1" height="1" fill="#8f6236"/><rect x="8" y="7" width="1" height="1" fill="#8f6236"/><rect x="9" y="7" width="1" height="1" fill="#4a2e15"/><rect x="10" y="7" width="1" height="1" fill="#241608"/><rect x="11" y="7" width="1" height="1" fill="#6d4622"/><rect x="12" y="7" width="1" height="1" fill="#8f6236"/><rect x="1" y="8" width="1" height="1" fill="#6d4622"/><rect x="2" y="8" width="1" height="1" fill="#241608"/><rect x="3" y="8" width="1" height="1" fill="#8f6236"/><rect x="4" y="8" width="1" height="1" fill="#6d4622"/><rect x="5" y="8" width="1" height="1" fill="#6d4622"/><rect x="6" y="8" width="1" height="1" fill="#6d4622"/><rect x="7" y="8" width="1" height="1" fill="#6d4622"/><rect x="8" y="8" width="1" height="1" fill="#6d4622"/><rect x="9" y="8" width="1" height="1" fill="#4a2e15"/><rect x="10" y="8" width="1" height="1" fill="#241608"/><rect x="11" y="8" width="1" height="1" fill="#6d4622"/><rect x="12" y="8" width="1" height="1" fill="#241608"/><rect x="1" y="9" width="1" height="1" fill="#6d4622"/><rect x="2" y="9" width="1" height="1" fill="#241608"/><rect x="3" y="9" width="1" height="1" fill="#8f6236"/><rect x="4" y="9" width="1" height="1" fill="#6d4622"/><rect x="5" y="9" width="1" height="1" fill="#6d4622"/><rect x="6" y="9" width="1" height="1" fill="#6d4622"/><rect x="7" y="9" width="1" height="1" fill="#6d4622"/><rect x="8" y="9" width="1" height="1" fill="#6d4622"/><rect x="9" y="9" width="1" height="1" fill="#4a2e15"/><rect x="10" y="9" width="1" height="1" fill="#241608"/><rect x="11" y="9" width="1" height="1" fill="#241608"/><rect x="12" y="9" width="1" height="1" fill="#4a2e15"/><rect x="13" y="9" width="1" height="1" fill="#241608"/><rect x="1" y="10" width="1" height="1" fill="#6d4622"/><rect x="2" y="10" width="1" height="1" fill="#241608"/><rect x="3" y="10" width="1" height="1" fill="#8f6236"/><rect x="4" y="10" width="1" height="1" fill="#6d4622"/><rect x="5" y="10" width="1" height="1" fill="#6d4622"/><rect x="6" y="10" width="1" height="1" fill="#6d4622"/><rect x="7" y="10" width="1" height="1" fill="#6d4622"/><rect x="8" y="10" width="1" height="1" fill="#6d4622"/><rect x="9" y="10" width="1" height="1" fill="#4a2e15"/><rect x="10" y="10" width="1" height="1" fill="#241608"/><rect x="11" y="10" width="1" height="1" fill="#6d4622"/><rect x="12" y="10" width="1" height="1" fill="#241608"/><rect x="1" y="11" width="1" height="1" fill="#6d4622"/><rect x="2" y="11" width="1" height="1" fill="#241608"/><rect x="3" y="11" width="1" height="1" fill="#8f6236"/><rect x="4" y="11" width="1" height="1" fill="#6d4622"/><rect x="5" y="11" width="1" height="1" fill="#6d4622"/><rect x="6" y="11" width="1" height="1" fill="#6d4622"/><rect x="7" y="11" width="1" height="1" fill="#6d4622"/><rect x="8" y="11" width="1" height="1" fill="#6d4622"/><rect x="9" y="11" width="1" height="1" fill="#4a2e15"/><rect x="10" y="11" width="1" height="1" fill="#241608"/><rect x="11" y="11" width="1" height="1" fill="#6d4622"/><rect x="12" y="11" width="1" height="1" fill="#4a2e15"/><rect x="1" y="12" width="1" height="1" fill="#6d4622"/><rect x="2" y="12" width="1" height="1" fill="#241608"/><rect x="3" y="12" width="1" height="1" fill="#4a2e15"/><rect x="4" y="12" width="1" height="1" fill="#4a2e15"/><rect x="5" y="12" width="1" height="1" fill="#4a2e15"/><rect x="6" y="12" width="1" height="1" fill="#4a2e15"/><rect x="7" y="12" width="1" height="1" fill="#4a2e15"/><rect x="8" y="12" width="1" height="1" fill="#4a2e15"/><rect x="9" y="12" width="1" height="1" fill="#4a2e15"/><rect x="10" y="12" width="1" height="1" fill="#241608"/><rect x="11" y="12" width="1" height="1" fill="#4a2e15"/><rect x="1" y="13" width="1" height="1" fill="#bab6ab"/><rect x="2" y="13" width="1" height="1" fill="#bab6ab"/><rect x="3" y="13" width="1" height="1" fill="#7d7a72"/><rect x="4" y="13" width="1" height="1" fill="#7d7a72"/><rect x="5" y="13" width="1" height="1" fill="#7d7a72"/><rect x="6" y="13" width="1" height="1" fill="#7d7a72"/><rect x="7" y="13" width="1" height="1" fill="#7d7a72"/><rect x="8" y="13" width="1" height="1" fill="#7d7a72"/><rect x="9" y="13" width="1" height="1" fill="#7d7a72"/><rect x="10" y="13" width="1" height="1" fill="#bab6ab"/><rect x="11" y="13" width="1" height="1" fill="#bab6ab"/></svg>
