<svg xmlns="http://www.w3.org/2000/svg" viewBox="0 0 16 16" width="256" height="256" shape-rendering="crispEdges" role="img" aria-label="Bone Fragment"><title>Bone Fragment — idle-down</title><rect width="16" height="16" fill="transparent"/><rect x="13" y="1" width="1" height="1" fill="#f6f0dc"/><rect x="14" y="1" width="1" height="1" fill="#f6f0dc"/><rect x="13" y="2" width="1" height="1" fill="#e0d7bb"/><rect x="14" y="2" width="1" height="1" fill="#b7ac8b"/><rect x="12" y="3" width="1" height="1" fill="#f6f0dc"/><rect x="13" y="3" width="1" height="1" fill="#e0d7bb"/><rect x="14" y="3" width="1" height="1" fill="#b7ac8b"/><rect x="10" y="4" width="1" height="1" fill="#f6f0dc"/><rect x="11" y="4" width="1" height="1" fill="#f6f0dc"/><rect x="12" y="4" width="1" height="1" fill="#e0d7bb"/><rect x="13" y="4" width="1" height="1" fill="#b7ac8b"/><rect x="10" y="5" width="1" height="1" fill="#e0d7bb"/><rect x="11" y="5" width="1" height="1" fill="#e0d7bb"/><rect x="12" y="5" width="1" height="1" fill="#e0d7bb"/><rect x="13" y="5" width="1" height="1" fill="#b7ac8b"/><rect x="9" y="6" width="1" height="1" fill="#f6f0dc"/><rect x="10" y="6" width="1" height="1" fill="#e0d7bb"/><rect x="11" y="6" width="1" height="1" fill="#e0d7bb"/><rect x="12" y="6" width="1" height="1" fill="#b7ac8b"/><rect x="6" y="7" width="1" height="1" fill="#f6f0dc"/><rect x="7" y="7" width="1" height="1" fill="#f6f0dc"/><rect x="8" y="7" width="1" height="1" fill="#f6f0dc"/><rect x="9" y="7" width="1" height="1" fill="#e0d7bb"/><rect x="10" y="7" width="1" height="1" fill="#e0d7bb"/><rect x="11" y="7" width="1" height="1" fill="#b7ac8b"/><rect x="6" y="8" width="1" height="1" fill="#e0d7bb"/><rect x="7" y="8" width="1" height="1" fill="#e0d7bb"/><rect x="8" y="8" width="1" height="1" fill="#e0d7bb"/><rect x="9" y="8" width="1" height="1" fill="#e0d7bb"/><rect x="10" y="8" width="1" height="1" fill="#b7ac8b"/><rect x="3" y="9" width="1" height="1" fill="#f6f0dc"/><rect x="4" y="9" width="1" height="1" fill="#f6f0dc"/><rect x="5" y="9" width="1" height="1" fill="#f6f0dc"/><rect x="6" y="9" width="1" height="1" fill="#e0d7bb"/><rect x="7" y="9" width="1" height="1" fill="#e0d7bb"/><rect x="8" y="9" width="1" height="1" fill="#e0d7bb"/><rect x="9" y="9" width="1" height="1" fill="#b7ac8b"/><rect x="3" y="10" width="1" height="1" fill="#e0d7bb"/><rect x="4" y="10" width="1" height="1" fill="#e0d7bb"/><rect x="5" y="10" width="1" height="1" fill="#e0d7bb"/><rect x="6" y="10" width="1" height="1" fill="#e0d7bb"/><rect x="7" y="10" width="1" height="1" fill="#b7ac8b"/><rect x="8" y="10" width="1" height="1" fill="#b7ac8b"/><rect x="3" y="11" width="1" height="1" fill="#e0d7bb"/><rect x="4" y="11" width="1" height="1" fill="#e0d7bb"/><rect x="5" y="11" width="1" height="1" fill="#e0d7bb"/><rect x="6" y="11" width="1" height="1" fill="#b7ac8b"/><rect x="1" y="12" width="1" height="1" fill="#f6f0dc"/><rect x="2" y="12" width="1" height="1" fill="#f6f0dc"/><rect x="3" y="12" width="1" height="1" fill="#e0d7bb"/><rect x="4" y="12" width="1" height="1" fill="#b7ac8b"/><rect x="5" y="12" width="1" height="1" fill="#b7ac8b"/><rect x="1" y="13" width="1" height="1" fill="#e0d7bb"/><rect x="2" y="13" width="1" height="1" fill="#e0d7bb"/><rect x="3" y="13" width="1" height="1" fill="#b7ac8b"/><rect x="1" y="14" width="1" height="1" fill="#b7ac8b"/><rect x="2" y="14" width="1" height="1" fill="#b7ac8b"/></svg>
