<svg xmlns="http://www.w3.org/2000/svg" viewBox="0 0 16 32" width="256" height="512" shape-rendering="crispEdges" role="img" aria-label="Cow"><title>Cow — idle-down</title><rect width="16" height="32" fill="transparent"/><rect x="6" y="9" width="1" height="1" fill="#88705a"/><rect x="7" y="9" width="1" height="1" fill="#88705a"/><rect x="8" y="9" width="1" height="1" fill="#88705a"/><rect x="9" y="9" width="1" height="1" fill="#88705a"/><rect x="4" y="10" width="1" height="1" fill="#63503f"/><rect x="5" y="10" width="1" height="1" fill="#88705a"/><rect x="6" y="10" width="1" height="1" fill="#241d18"/><rect x="7" y="10" width="1" height="1" fill="#241d18"/><rect x="8" y="10" width="1" height="1" fill="#241d18"/><rect x="9" y="10" width="1" height="1" fill="#241d18"/><rect x="10" y="10" width="1" height="1" fill="#88705a"/><rect x="11" y="10" width="1" height="1" fill="#42352b"/><rect x="5" y="11" width="1" height="1" fill="#241d18"/><rect x="6" y="11" width="1" height="1" fill="#88705a"/><rect x="7" y="11" width="1" height="1" fill="#42352b"/><rect x="8" y="11" width="1" height="1" fill="#88705a"/><rect x="9" y="11" width="1" height="1" fill="#42352b"/><rect x="10" y="11" width="1" height="1" fill="#241d18"/><rect x="5" y="12" width="1" height="1" fill="#241d18"/><rect x="6" y="12" width="1" height="1" fill="#42352b"/><rect x="7" y="12" width="1" height="1" fill="#241d18"/><rect x="8" y="12" width="1" height="1" fill="#42352b"/><rect x="9" y="12" width="1" height="1" fill="#241d18"/><rect x="10" y="12" width="1" height="1" fill="#42352b"/><rect x="5" y="13" width="1" height="1" fill="#e8e5dc"/><rect x="6" y="13" width="1" height="1" fill="#7d7a72"/><rect x="7" y="13" width="1" height="1" fill="#7d7a72"/><rect x="8" y="13" width="1" height="1" fill="#7d7a72"/><rect x="9" y="13" width="1" height="1" fill="#e8e5dc"/><rect x="10" y="13" width="1" height="1" fill="#bab6ab"/><rect x="5" y="14" width="1" height="1" fill="#e8e5dc"/><rect x="6" y="14" width="1" height="1" fill="#7d7a72"/><rect x="7" y="14" width="1" height="1" fill="#bab6ab"/><rect x="8" y="14" width="1" height="1" fill="#bab6ab"/><rect x="9" y="14" width="1" height="1" fill="#7d7a72"/><rect x="10" y="14" width="1" height="1" fill="#bab6ab"/><rect x="5" y="15" width="1" height="1" fill="#e8e5dc"/><rect x="6" y="15" width="1" height="1" fill="#7d7a72"/><rect x="7" y="15" width="1" height="1" fill="#7d7a72"/><rect x="8" y="15" width="1" height="1" fill="#7d7a72"/><rect x="9" y="15" width="1" height="1" fill="#7d7a72"/><rect x="10" y="15" width="1" height="1" fill="#bab6ab"/><rect x="5" y="16" width="1" height="1" fill="#7d7a72"/><rect x="6" y="16" width="1" height="1" fill="#ffffff"/><rect x="7" y="16" width="1" height="1" fill="#ffffff"/><rect x="8" y="16" width="1" height="1" fill="#ffffff"/><rect x="9" y="16" width="1" height="1" fill="#bab6ab"/><rect x="10" y="16" width="1" height="1" fill="#7d7a72"/><rect x="5" y="17" width="1" height="1" fill="#241d18"/><rect x="6" y="17" width="1" height="1" fill="#ffffff"/><rect x="7" y="17" width="1" height="1" fill="#e8e5dc"/><rect x="8" y="17" width="1" height="1" fill="#e8e5dc"/><rect x="9" y="17" width="1" height="1" fill="#bab6ab"/><rect x="10" y="17" width="1" height="1" fill="#7d7a72"/><rect x="4" y="18" width="1" height="1" fill="#88705a"/><rect x="5" y="18" width="1" height="1" fill="#241d18"/><rect x="6" y="18" width="1" height="1" fill="#ffffff"/><rect x="7" y="18" width="1" height="1" fill="#e8e5dc"/><rect x="8" y="18" width="1" height="1" fill="#e8e5dc"/><rect x="9" y="18" width="1" height="1" fill="#e8e5dc"/><rect x="10" y="18" width="1" height="1" fill="#bab6ab"/><rect x="11" y="18" width="1" height="1" fill="#7d7a72"/><rect x="4" y="19" width="1" height="1" fill="#241d18"/><rect x="5" y="19" width="1" height="1" fill="#88705a"/><rect x="6" y="19" width="1" height="1" fill="#e8e5dc"/><rect x="7" y="19" width="1" height="1" fill="#e8e5dc"/><rect x="8" y="19" width="1" height="1" fill="#e8e5dc"/><rect x="9" y="19" width="1" height="1" fill="#e8e5dc"/><rect x="10" y="19" width="1" height="1" fill="#bab6ab"/><rect x="11" y="19" width="1" height="1" fill="#7d7a72"/><rect x="3" y="20" width="1" height="1" fill="#241d18"/><rect x="4" y="20" width="1" height="1" fill="#88705a"/><rect x="5" y="20" width="1" height="1" fill="#63503f"/><rect x="6" y="20" width="1" height="1" fill="#e8e5dc"/><rect x="7" y="20" width="1" height="1" fill="#e8e5dc"/><rect x="8" y="20" width="1" height="1" fill="#e8e5dc"/><rect x="9" y="20" width="1" height="1" fill="#bab6ab"/><rect x="10" y="20" width="1" height="1" fill="#7d7a72"/><rect x="11" y="20" width="1" height="1" fill="#bab6ab"/><rect x="12" y="20" width="1" height="1" fill="#7d7a72"/><rect x="3" y="21" width="1" height="1" fill="#241d18"/><rect x="4" y="21" width="1" height="1" fill="#88705a"/><rect x="5" y="21" width="1" height="1" fill="#63503f"/><rect x="6" y="21" width="1" height="1" fill="#dd8a99"/><rect x="7" y="21" width="1" height="1" fill="#a85668"/><rect x="8" y="21" width="1" height="1" fill="#dd8a99"/><rect x="9" y="21" width="1" height="1" fill="#dd8a99"/><rect x="10" y="21" width="1" height="1" fill="#f2b8c2"/><rect x="11" y="21" width="1" height="1" fill="#a85668"/><rect x="12" y="21" width="1" height="1" fill="#6b3040"/><rect x="3" y="22" width="1" height="1" fill="#241d18"/><rect x="4" y="22" width="1" height="1" fill="#42352b"/><rect x="5" y="22" width="1" height="1" fill="#42352b"/><rect x="6" y="22" width="1" height="1" fill="#a85668"/><rect x="7" y="22" width="1" height="1" fill="#6b3040"/><rect x="8" y="22" width="1" height="1" fill="#a85668"/><rect x="9" y="22" width="1" height="1" fill="#a85668"/><rect x="10" y="22" width="1" height="1" fill="#a85668"/><rect x="11" y="22" width="1" height="1" fill="#a85668"/><rect x="12" y="22" width="1" height="1" fill="#6b3040"/><rect x="3" y="23" width="1" height="1" fill="#42352b"/><rect x="4" y="23" width="1" height="1" fill="#241d18"/><rect x="5" y="23" width="1" height="1" fill="#241d18"/><rect x="6" y="23" width="1" height="1" fill="#6b3040"/><rect x="7" y="23" width="1" height="1" fill="#6b3040"/><rect x="8" y="23" width="1" height="1" fill="#6b3040"/><rect x="9" y="23" width="1" height="1" fill="#6b3040"/><rect x="10" y="23" width="1" height="1" fill="#6b3040"/><rect x="11" y="23" width="1" height="1" fill="#6b3040"/><rect x="12" y="23" width="1" height="1" fill="#a85668"/><rect x="5" y="24" width="1" height="1" fill="#63503f"/><rect x="6" y="24" width="1" height="1" fill="#7d7a72"/><rect x="7" y="24" width="1" height="1" fill="#ffffff"/><rect x="8" y="24" width="1" height="1" fill="#bab6ab"/><rect x="9" y="24" width="1" height="1" fill="#7d7a72"/><rect x="10" y="24" width="1" height="1" fill="#bab6ab"/><rect x="5" y="25" width="1" height="1" fill="#63503f"/><rect x="6" y="25" width="1" height="1" fill="#7d7a72"/><rect x="7" y="25" width="1" height="1" fill="#ffffff"/><rect x="8" y="25" width="1" height="1" fill="#bab6ab"/><rect x="9" y="25" width="1" height="1" fill="#7d7a72"/><rect x="10" y="25" width="1" height="1" fill="#bab6ab"/><rect x="5" y="26" width="1" height="1" fill="#63503f"/><rect x="6" y="26" width="1" height="1" fill="#7d7a72"/><rect x="7" y="26" width="1" height="1" fill="#ffffff"/><rect x="8" y="26" width="1" height="1" fill="#bab6ab"/><rect x="9" y="26" width="1" height="1" fill="#7d7a72"/><rect x="10" y="26" width="1" height="1" fill="#bab6ab"/><rect x="5" y="27" width="1" height="1" fill="#63503f"/><rect x="6" y="27" width="1" height="1" fill="#7d7a72"/><rect x="7" y="27" width="1" height="1" fill="#ffffff"/><rect x="8" y="27" width="1" height="1" fill="#bab6ab"/><rect x="9" y="27" width="1" height="1" fill="#7d7a72"/><rect x="10" y="27" width="1" height="1" fill="#bab6ab"/><rect x="5" y="28" width="1" height="1" fill="#63503f"/><rect x="6" y="28" width="1" height="1" fill="#7d7a72"/><rect x="7" y="28" width="1" height="1" fill="#ffffff"/><rect x="8" y="28" width="1" height="1" fill="#bab6ab"/><rect x="9" y="28" width="1" height="1" fill="#7d7a72"/><rect x="10" y="28" width="1" height="1" fill="#bab6ab"/><rect x="5" y="29" width="1" height="1" fill="#63503f"/><rect x="6" y="29" width="1" height="1" fill="#7d7a72"/><rect x="7" y="29" width="1" height="1" fill="#bab6ab"/><rect x="8" y="29" width="1" height="1" fill="#bab6ab"/><rect x="9" y="29" width="1" height="1" fill="#7d7a72"/><rect x="10" y="29" width="1" height="1" fill="#bab6ab"/><rect x="4" y="30" width="1" height="1" fill="#63503f"/><rect x="5" y="30" width="1" height="1" fill="#42352b"/><rect x="6" y="30" width="1" height="1" fill="#bab6ab"/><rect x="7" y="30" width="1" height="1" fill="#7d7a72"/><rect x="8" y="30" width="1" height="1" fill="#7d7a72"/><rect x="9" y="30" width="1" height="1" fill="#bab6ab"/><rect x="10" y="30" width="1" height="1" fill="#bab6ab"/><rect x="11" y="30" width="1" height="1" fill="#bab6ab"/></svg>
